<?xml version="1.0" standalone="no"?>
<!DOCTYPE svg PUBLIC "-//W3C//DTD SVG 20010904//EN"
 "http://www.w3.org/TR/2001/REC-SVG-20010904/DTD/svg10.dtd">
<svg version="1.0" xmlns="http://www.w3.org/2000/svg"
 width="300.000000pt" height="168.000000pt" viewBox="0 0 300.000000 168.000000"
 preserveAspectRatio="xMidYMid meet">

<g transform="translate(0.000000,168.000000) scale(0.100000,-0.100000)"
fill="#000000" stroke="none">
<path d="M132 1230 c-47 -34 -98 -115 -107 -171 -8 -49 17 -105 57 -125 17 -9
32 -14 34 -11 2 2 -3 20 -11 40 -28 67 -11 160 40 222 l24 30 1 -255 c0 -140
-4 -271 -10 -289 -5 -19 -8 -37 -5 -39 11 -12 55 20 72 50 16 29 18 65 21 296
l3 262 -26 10 c-39 15 -48 13 -93 -20z"/>
<path d="M986 1253 c-3 -3 -6 -30 -6 -60 l0 -53 -44 0 c-31 0 -46 -5 -50 -16
-11 -28 -7 -33 39 -40 l45 -6 0 -101 c0 -91 -3 -104 -27 -146 l-27 -46 -6 30
c-10 48 -27 72 -75 106 -25 18 -45 34 -45 35 0 2 9 19 21 38 27 46 18 76 -22
76 -57 0 -97 -68 -69 -119 7 -15 -1 -36 -38 -97 -26 -43 -55 -80 -64 -82 -16
-3 -18 8 -18 127 0 123 -1 131 -22 145 -55 39 -115 0 -152 -99 -28 -74 -31
-72 -27 17 3 86 -2 98 -46 98 -23 0 -23 0 -23 -175 l0 -175 25 -12 c33 -15 39
-8 58 77 17 71 83 216 102 222 6 2 10 -47 10 -133 0 -129 1 -137 22 -154 13
-10 31 -16 42 -13 28 7 74 59 124 140 l44 73 42 -45 c43 -46 48 -63 31 -96
-13 -24 -42 -24 -77 -2 -24 16 -26 16 -40 -2 -21 -30 -12 -49 32 -63 79 -26
161 9 205 88 l24 45 7 -37 c18 -113 108 -137 164 -44 14 23 25 34 25 25 0 -24
39 -69 68 -80 33 -13 86 5 111 37 21 27 31 30 31 11 0 -23 39 -50 72 -50 21 0
38 8 53 25 l22 26 26 -26 c34 -33 85 -35 126 -4 17 12 33 22 36 22 16 0 -2
-25 -61 -81 -75 -73 -94 -104 -94 -152 0 -82 116 -110 179 -43 31 33 42 79 42
175 0 84 1 85 45 147 24 34 58 92 74 128 28 61 33 66 61 66 24 0 30 -4 25 -15
-13 -35 -18 -142 -7 -181 22 -83 100 -115 147 -61 22 26 24 26 33 8 13 -24 60
-40 95 -34 15 3 39 18 54 33 l27 28 26 -31 c33 -39 82 -42 110 -6 15 20 19 21
19 6 0 -20 44 -40 70 -32 14 4 18 21 23 83 6 86 44 203 58 181 5 -8 9 -41 9
-74 1 -78 15 -136 37 -153 34 -25 47 -11 60 70 7 43 22 99 33 125 l19 48 0
-61 c1 -83 18 -164 39 -187 46 -52 102 -39 128 29 16 43 13 81 -6 69 -5 -3
-10 -14 -10 -24 0 -11 -9 -29 -19 -42 -19 -23 -20 -23 -38 -6 -15 15 -19 38
-21 150 -4 144 -9 157 -63 157 -30 0 -38 -16 -78 -145 l-19 -60 -1 87 c-1 97
-12 118 -61 118 -26 0 -31 -6 -50 -57 -33 -91 -34 -92 -40 -18 l-5 70 -32 3
-33 3 0 -121 c0 -125 -13 -184 -45 -196 -8 -4 -22 -1 -30 6 -12 10 -15 41 -15
151 0 126 -2 139 -19 149 -28 15 -51 12 -51 -6 0 -13 -5 -12 -26 5 -53 42
-120 15 -155 -63 -13 -29 -19 -65 -19 -124 0 -91 -10 -122 -40 -122 -48 0 -59
107 -25 241 4 18 1 31 -11 43 -16 16 -37 16 -96 0 -12 -4 -17 2 -20 23 -4 40
-50 45 -74 8 -15 -22 -15 -31 -4 -64 11 -34 10 -42 -18 -102 -16 -35 -37 -73
-46 -84 -15 -19 -16 -12 -14 110 l1 130 -27 10 c-22 7 -30 6 -39 -6 -11 -14
-14 -14 -31 3 -11 10 -33 18 -51 18 -73 0 -115 -71 -123 -205 -5 -101 -14
-125 -43 -125 -30 0 -39 39 -39 180 l0 128 -27 7 c-19 4 -31 2 -39 -9 -10 -14
-13 -14 -29 4 -11 13 -31 20 -53 20 -64 0 -122 -90 -122 -191 0 -39 -35 -115
-57 -123 -43 -17 -58 47 -48 209 l7 115 49 0 c37 0 51 4 58 19 14 24 5 31 -40
31 -62 0 -69 7 -69 60 0 27 -3 51 -7 53 -18 10 -60 16 -67 10z m362 -273 c17
-33 10 -155 -11 -197 -23 -43 -55 -52 -80 -22 -27 34 -22 196 7 228 26 29 66
24 84 -9z m348 5 c23 -35 15 -159 -12 -206 -25 -42 -62 -46 -82 -9 -19 37 -12
178 11 213 23 35 61 36 83 2z m615 3 c19 -36 15 -162 -7 -199 -30 -50 -49 -58
-76 -31 -20 20 -23 32 -23 105 1 103 21 147 65 147 20 0 33 -7 41 -22z m-594
-404 c-6 -84 -25 -124 -60 -124 -52 0 -61 46 -21 106 27 40 74 94 82 94 3 0 2
-34 -1 -76z"/>
</g>
</svg>
